<?xml version="1.0" encoding="utf-8"?>
<!DOCTYPE svg PUBLIC "-//W3C//DTD SVG 1.1//EN" "http://www.w3.org/Graphics/SVG/1.1/DTD/svg11.dtd">
<svg version="1.1" xmlns="http://www.w3.org/2000/svg" xmlns:xlink="http://www.w3.org/1999/xlink" xmlns:xml="http://www.w3.org/XML/1998/namespace" viewBox="0, 0, 96.95438, 54.8" id="Layer_1" data-name="Layer 1">
  <title>Rating Icon - 39890 - SONIC X SHADOW GENERATIONS</title>
  <defs>
    <style>.cls-1{fill:#231f20;}.cls-2{fill:#fff;}</style>
  </defs>
  <rect x="0" y="0" width="96.95438" height="54.8" id="area_back" class="cls-1" style="fill:#231F20;" />
  <rect x="1.37" y="1.58" width="26.19" height="7.36" class="cls-2" style="fill:white;" />
  <rect x="1.36" y="10.54" width="26.21" height="27.05" class="cls-2" style="fill:white;" />
  <rect x="29.16" y="1.57" width="66.23438" height="41.22" id="area_right" class="cls-2" style="fill:white;" />
  <polygon points="1.36,42.78 1.36,39.19 6.63,39.19 6.63,40.03 3.48,40.03 3.48,40.55 6.14,40.55 6.14,41.38 3.48,41.38 3.48,41.95 6.75,41.95 6.75,42.78 1.36,42.78" class="cls-2" style="fill:white;" />
  <path d="M647.22 402.46 a0.38 0.38 0 0 0 -0.31 -0.24 a1.73 1.73 0 0 0 -0.54 -0.07 c-0.47 0 -0.68 0.08 -0.68 0.21 c0 0.53 3.71 0.2 3.71 1.51 c0 0.83 -1.24 1.24 -3 1.24 s-2.82 -0.56 -2.86 -1.21 h2 a0.55 0.55 0 0 0 0.35 0.29 a1.89 1.89 0 0 0 0.6 0.09 c0.53 0 0.88 -0.1 0.88 -0.27 c0 -0.54 -3.71 -0.17 -3.71 -1.54 c0 -0.76 1.18 -1.14 2.8 -1.14 c1.79 0 2.6 0.5 2.76 1.13 Z" transform="translate(-636, -362.23)" class="cls-2" style="fill:white;" />
  <path d="M652.57 403 h0.83 c0.66 0 1 -0.09 1 -0.34 s-0.36 -0.37 -0.85 -0.37 h-1 Z m0 0.79 V405 h-2.11 v-3.59 h3 c2.15 0 2.86 0.33 2.86 1 c0 0.42 -0.33 0.76 -1.08 0.88 c0.68 0.14 1.09 0.23 1.09 0.95 c0 0.47 0 0.63 0.22 0.63 V405 h-2.14 a1.42 1.42 0 0 1 -0.11 -0.63 c0 -0.47 -0.14 -0.62 -1.12 -0.62 Z" transform="translate(-636, -362.23)" class="cls-2" style="fill:white;" />
  <path d="M659.77 402.26 v0.6 h0.88 c0.42 0 0.73 -0.11 0.73 -0.32 s-0.42 -0.28 -0.86 -0.28 Z m0 1.25 v0.66 h0.92 c0.53 0 0.92 -0.06 0.92 -0.33 s-0.49 -0.33 -1.17 -0.33 Z m-2.11 1.5 v-3.59 h3.08 c1.45 0 2.61 0.19 2.61 0.9 c0 0.37 -0.43 0.64 -0.84 0.78 c0.7 0.1 1.07 0.44 1.07 0.82 c0 0.81 -1.1 1.09 -2.78 1.09 Z" transform="translate(-636, -362.23)" class="cls-2" style="fill:white;" />
  <path d="M652.13 393.16 H651 v0.62 h1.13 v1.1 h0.64 v-1.1 h1.13 v-0.62 h-1.13 v-1.1 h-0.64 Z m-1.8 -0.28 c0 -2.18 -1.17 -3.47 -3.11 -3.47 c-2.62 0 -3.27 1.79 -3.27 3.47 c0 2.06 1 3.48 3.19 3.48 s3.19 -1.42 3.19 -3.48 m-11 -13.87 l15.87 -4.74 l1.59 5 l-7.95 2.37 l0.65 2.05 l7.35 -2.19 l1.58 5 l-7.34 2.19 l0.69 2.17 l8.21 -2.46 l1.59 5 l-16.13 4.81 L639.35 379 m0.61 12.71 a5.1 5.1 0 0 0 2 -1 V396 h1.49 v-6.59 H642 a5.33 5.33 0 0 1 -2 1 v1.27" transform="translate(-636, -362.23)" class="cls-1" style="fill:#231F20;" />
  <path d="M645.32 392.82 c0 -2.2 0.89 -2.71 1.89 -2.71 s1.75 0.84 1.75 2.77 c0 1.21 -0.33 2.69 -1.77 2.68 s-1.88 -1.13 -1.87 -2.74" transform="translate(-636, -362.23)" class="cls-1" style="fill:#231F20;" />
  <path d="M638.07 369.55 v-4.14 h1.64 v0.64 h-1 v1 h0.93 v0.63 h-0.93 v1.21 h1 v0.64 Z" transform="translate(-636, -362.23)" class="cls-1" style="fill:#231F20;" />
  <path d="M639.91 365.41 h0.65 l0.46 3 h0 l0.53 -3 h0.62 l-0.8 4.14 h-0.73 Z" transform="translate(-636, -362.23)" class="cls-1" style="fill:#231F20;" />
  <path d="M642.46 369.55 v-4.14 h1.64 v0.64 h-1 v1 H644 v0.63 h-0.93 v1.21 h1 v0.64 Z" transform="translate(-636, -362.23)" class="cls-1" style="fill:#231F20;" />
  <path d="M645.15 369.55 h-0.63 v-4.14 h1.16 a0.58 0.58 0 0 1 0.51 0.27 a1.43 1.43 0 0 1 0.19 0.81 a1.64 1.64 0 0 1 -0.12 0.67 a0.61 0.61 0 0 1 -0.43 0.35 h0 l0.14 0 a0.44 0.44 0 0 1 0.18 0.11 a0.67 0.67 0 0 1 0.16 0.24 a1.23 1.23 0 0 1 0.06 0.43 v0.28 c0 0.12 0 0.24 0 0.37 l0 0.35 a2 2 0 0 0 0 0.22 h-0.61 a1.34 1.34 0 0 1 -0.07 -0.4 v-0.75 a1.19 1.19 0 0 0 0 -0.29 a0.38 0.38 0 0 0 -0.41 -0.28 h-0.16 Z m0 -2.35 h0.28 a0.2 0.2 0 0 0 0.15 -0.06 a0.51 0.51 0 0 0 0.15 -0.34 a1.65 1.65 0 0 0 0 -0.21 a0.73 0.73 0 0 0 -0.09 -0.42 a0.26 0.26 0 0 0 -0.23 -0.12 h-0.28 Z" transform="translate(-636, -362.23)" class="cls-1" style="fill:#231F20;" />
  <path d="M647.34 368.12 l-0.79 -2.71 h0.69 l0.44 1.75 l0.48 -1.75 h0.64 l-0.84 2.71 v1.43 h-0.62 Z" transform="translate(-636, -362.23)" class="cls-1" style="fill:#231F20;" />
  <path d="M650.1 369.62 a0.9 0.9 0 0 1 -0.6 -0.18 a1.08 1.08 0 0 1 -0.31 -0.48 a2.85 2.85 0 0 1 -0.11 -0.69 c0 -0.26 0 -0.52 0 -0.79 s0 -0.54 0 -0.8 a2.76 2.76 0 0 1 0.11 -0.68 a1.08 1.08 0 0 1 0.31 -0.48 a1.09 1.09 0 0 1 1.2 0 a1 1 0 0 1 0.3 0.48 a2.75 2.75 0 0 1 0.12 0.68 c0 0.26 0 0.52 0 0.8 s0 0.53 0 0.79 a2.83 2.83 0 0 1 -0.12 0.69 a1 1 0 0 1 -0.3 0.48 A0.9 0.9 0 0 1 650.1 369.62 Z m0 -0.62 a0.26 0.26 0 0 0 0.21 -0.09 a0.68 0.68 0 0 0 0.12 -0.27 a2 2 0 0 0 0.05 -0.48 c0 -0.19 0 -0.42 0 -0.68 s0 -0.49 0 -0.69 a2 2 0 0 0 -0.05 -0.47 a0.68 0.68 0 0 0 -0.12 -0.27 a0.29 0.29 0 0 0 -0.42 0 a0.48 0.48 0 0 0 -0.12 0.27 a2.58 2.58 0 0 0 -0.06 0.47 c0 0.2 0 0.43 0 0.69 s0 0.49 0 0.68 a2.59 2.59 0 0 0 0.06 0.48 a0.48 0.48 0 0 0 0.12 0.27 A0.26 0.26 0 0 0 650.1 369 Z" transform="translate(-636, -362.23)" class="cls-1" style="fill:#231F20;" />
  <path d="M651.64 369.55 v-4.14 h0.84 l0.8 2.87 h0 v-2.87 h0.59 v4.14 h-0.83 l-0.82 -3 h0 v3 Z" transform="translate(-636, -362.23)" class="cls-1" style="fill:#231F20;" />
  <path d="M654.4 369.55 v-4.14 H656 v0.64 h-1 v1 H656 v0.63 H655 v1.21 h1 v0.64 Z" transform="translate(-636, -362.23)" class="cls-1" style="fill:#231F20;" />
  <path d="M657.34 366.06 a2.61 2.61 0 0 0 0.31 -0.27 a3.32 3.32 0 0 0 0.26 -0.36 h0.55 v4.12 h-0.63 v-3.17 a2.73 2.73 0 0 1 -0.23 0.25 l-0.26 0.21 Z" transform="translate(-636, -362.23)" class="cls-1" style="fill:#231F20;" />
  <path d="M659.91 365.37 a0.81 0.81 0 0 1 0.43 0.11 a0.69 0.69 0 0 1 0.26 0.35 a3.23 3.23 0 0 1 0.11 0.65 a9.41 9.41 0 0 1 0 1 c0 0.32 0 0.61 0 0.87 a2.83 2.83 0 0 1 -0.11 0.67 a0.94 0.94 0 0 1 -0.25 0.43 a0.69 0.69 0 0 1 -0.46 0.15 a0.65 0.65 0 0 1 -0.46 -0.15 a1 1 0 0 1 -0.26 -0.43 a2.88 2.88 0 0 1 -0.1 -0.67 c0 -0.26 0 -0.55 0 -0.87 s0 -0.73 0 -1 a2.6 2.6 0 0 1 0.12 -0.65 a0.68 0.68 0 0 1 0.25 -0.35 A0.82 0.82 0 0 1 659.91 365.37 Z m0 0.61 a0.19 0.19 0 0 0 -0.15 0.06 a0.4 0.4 0 0 0 -0.07 0.22 a2.64 2.64 0 0 0 0 0.45 c0 0.2 0 0.46 0 0.78 s0 0.56 0 0.76 a4.38 4.38 0 0 0 0 0.46 a0.59 0.59 0 0 0 0.08 0.23 a0.17 0.17 0 0 0 0.14 0.06 a0.16 0.16 0 0 0 0.13 -0.06 a0.46 0.46 0 0 0 0.08 -0.23 a3.92 3.92 0 0 0 0 -0.46 v-1.54 a4.36 4.36 0 0 0 0 -0.45 c0 -0.11 0 -0.19 -0.08 -0.22 A0.17 0.17 0 0 0 659.91 366 Z" transform="translate(-636, -362.23)" class="cls-1" style="fill:#231F20;" />
  <path d="M661.64 366.21 h0.46 v1.13 h0.7 V368 h-0.7 v1.13 h-0.46 V368 h-0.71 v-0.64 h0.71 Z" transform="translate(-636, -362.23)" class="cls-1" style="fill:#231F20;" />
  <text x="31.16px" y="25.19" font-family="Arial" font-size="8px" font="Arial" p4:space="preserve" style="font-family:Arial;font-size:8px;fill:#231f20;" xmlns:p4="xml">Fantasy Violence</text>
  <rect x="1.36" y="44.36" width="94.03438" height="8.870003" class="cls-2" style="fill:white;" />
  <text x="13.33422" y="51.36" font-family="Arial" font-size="8px" font="Arial" p4:space="preserve" style="font-family:Arial;font-size:8px;fill:#231f20;" xmlns:p4="xml">In-Game Purchases</text>
</svg>