<svg xmlns="http://www.w3.org/2000/svg" viewBox="0 0 56 56"><defs><style>.cls-1{fill:#fff;}</style></defs><g id="Layer_2" data-name="Layer 2"><g id="Logo"><g id="YouTube"><rect class="cls-1" width="56" height="56"/><path d="M43.43,20.17a4.08,4.08,0,0,0-2.85-2.88C38.07,16.61,28,16.61,28,16.61s-10.07,0-12.58.68a4.08,4.08,0,0,0-2.85,2.88A43,43,0,0,0,11.9,28a43,43,0,0,0,.67,7.83,4.08,4.08,0,0,0,2.85,2.88c2.51.68,12.58.68,12.58.68s10.07,0,12.58-.68a4.08,4.08,0,0,0,2.85-2.88A43,43,0,0,0,44.1,28,43,43,0,0,0,43.43,20.17ZM24.71,32.81V23.19L33.12,28Z"/></g></g></g></svg>