<?xml version="1.0" encoding="utf-8"?>
<!-- Generator: Adobe Illustrator 28.1.0, SVG Export Plug-In . SVG Version: 6.00 Build 0)  -->
<svg version="1.1" id="Layer_1" xmlns="http://www.w3.org/2000/svg" xmlns:xlink="http://www.w3.org/1999/xlink" x="0px" y="0px"
	 viewBox="0 0 56 56" style="enable-background:new 0 0 56 56;" xml:space="preserve">
<style type="text/css">
	.st0{fill:#FFFFFF;}
	.st1{display:none;}
</style>
<g id="Layer_2_00000118354778265662273840000003575615601768149679_">
	<g id="Logo">
		<g id="Facebook">
			<rect class="st0" width="56" height="56"/>
			<path class="st1" d="M42,28.1c0-7.7-6.2-14-14-14c-7.7,0-14,6.2-14,14c0,6.9,5,12.8,11.8,13.8v-9.8h-3.5v-4h3.5V25
				c0-3.5,2.1-5.4,5.3-5.4c1,0,2.1,0.1,3.1,0.3v3.4h-1.8c-1.1-0.2-2.1,0.6-2.3,1.7c0,0.2,0,0.3,0,0.5v2.6h3.9l-0.6,4h-3.3v9.8
				C37,40.8,42,34.9,42,28.1z"/>
			<path d="M14.1,42.3c0,0,0-0.1,0.1-0.1c2.6-3.1,5.3-6.1,7.9-9.2c1-1.1,1.9-2.2,2.9-3.3c0,0,0-0.1,0.1-0.1
				C21.3,24.3,17.7,19,14,13.7c0.1,0,0.1,0,0.2,0c1.2,0,2.3,0,3.5,0c1.5,0,3.1,0,4.6,0c0.1,0,0.2,0,0.2,0.1
				c2.4,3.4,4.7,6.9,7.1,10.3c0,0,0,0.1,0.1,0.1c0,0,0.1-0.1,0.1-0.1c1.3-1.5,2.5-2.9,3.8-4.4c1.7-2,3.4-3.9,5.1-5.9
				c0.1-0.1,0.1-0.1,0.2-0.1c0.7,0,1.4,0,2.2,0c0,0,0.1,0,0.2,0c-3.5,4.1-6.9,8.1-10.4,12.1c0,0,0.1,0.1,0.1,0.1
				c1.9,2.8,3.8,5.6,5.8,8.4c1.8,2.6,3.6,5.2,5.4,7.8c0,0,0.1,0.1,0.1,0.2c-2.8,0-5.5,0-8.3,0c0,0,0-0.1-0.1-0.1
				c-1.5-2.2-3.1-4.5-4.6-6.7c-1-1.4-1.9-2.8-2.9-4.2c0,0,0-0.1-0.1-0.1c0,0-0.1,0.1-0.1,0.1c-1.2,1.4-2.4,2.8-3.6,4.2
				c-1.9,2.2-3.8,4.5-5.8,6.7c0,0,0,0.1-0.1,0.1C15.7,42.3,14.9,42.3,14.1,42.3z M38.6,40.5c0-0.1-0.1-0.1-0.1-0.2
				c-1.7-2.4-3.4-4.8-5-7.2c-3.2-4.6-6.4-9.2-9.6-13.7c-0.9-1.3-1.8-2.5-2.6-3.8c0-0.1-0.1-0.1-0.2-0.1c-1.2,0-2.4,0-3.6,0
				c0,0-0.1,0-0.1,0c0,0.1,0.1,0.1,0.1,0.2c2.2,3.2,4.4,6.3,6.6,9.5c3.5,5.1,7.1,10.1,10.6,15.2c0.1,0.1,0.1,0.1,0.2,0.1
				c1.2,0,2.3,0,3.5,0C38.5,40.5,38.6,40.5,38.6,40.5z"/>
		</g>
	</g>
</g>
</svg>
