<svg xmlns="http://www.w3.org/2000/svg" viewBox="0 0 56 56"><defs><style>.cls-1{fill:#fff;}</style></defs><g id="Layer_2" data-name="Layer 2"><g id="Logo"><g id="Instagram"><rect class="cls-1" width="56" height="56"/><path d="M27.93,16.78c3.69,0,4.12,0,5.58.08a7.59,7.59,0,0,1,2.57.48,4.31,4.31,0,0,1,1.59,1,4.24,4.24,0,0,1,1,1.59,7.93,7.93,0,0,1,.48,2.58c.06,1.47.08,1.9.08,5.61s0,4.15-.08,5.61a7.87,7.87,0,0,1-.48,2.58,4.36,4.36,0,0,1-1,1.6,4.31,4.31,0,0,1-1.59,1,7.59,7.59,0,0,1-2.57.48c-1.46.06-1.89.08-5.58.08s-4.13,0-5.59-.08A7.46,7.46,0,0,1,19.78,39a4.15,4.15,0,0,1-1.59-1,4.26,4.26,0,0,1-1-1.6,7.68,7.68,0,0,1-.47-2.58c-.07-1.46-.08-1.9-.08-5.61s0-4.14.08-5.61A7.74,7.74,0,0,1,17.15,20a4.64,4.64,0,0,1,2.63-2.63,7.46,7.46,0,0,1,2.56-.48c1.46-.07,1.9-.08,5.59-.08m0-2.51c-3.76,0-4.23,0-5.7.09a10.31,10.31,0,0,0-3.36.64,6.74,6.74,0,0,0-2.44,1.61,6.82,6.82,0,0,0-1.6,2.46,10.33,10.33,0,0,0-.64,3.37c-.07,1.48-.08,1.95-.08,5.72s0,4.25.08,5.73a10.33,10.33,0,0,0,.64,3.37,6.91,6.91,0,0,0,1.6,2.46,6.71,6.71,0,0,0,2.44,1.6,10,10,0,0,0,3.36.65c1.47.07,1.94.08,5.7.08s4.22,0,5.69-.08A10,10,0,0,0,37,41.32a6.74,6.74,0,0,0,2.45-1.6A6.88,6.88,0,0,0,41,37.26a10.07,10.07,0,0,0,.64-3.37c.07-1.48.09-2,.09-5.73s0-4.24-.09-5.72A10.07,10.07,0,0,0,41,19.07,7.1,7.1,0,0,0,37,15a10.26,10.26,0,0,0-3.36-.64c-1.47-.07-1.94-.09-5.69-.09Z"/><path d="M27.93,21A7.13,7.13,0,1,0,35,28.16,7.11,7.11,0,0,0,27.93,21Zm0,11.76a4.63,4.63,0,1,1,4.6-4.63A4.62,4.62,0,0,1,27.93,32.79Z"/><ellipse cx="35.3" cy="20.75" rx="1.66" ry="1.67"/></g></g></g></svg>