<svg xmlns="http://www.w3.org/2000/svg" viewBox="0 0 2831.76 360"><defs><style>.cls-1{fill:#fff;}</style></defs><g id="Layer_2" data-name="Layer 2"><g id="Logo"><path class="cls-1" d="M180,144.36a1.11,1.11,0,0,1,.59.3c53.83,40.94,146,142.23,117.9,170.84a180,180,0,0,1-237,0c-28.1-28.61,64.06-129.9,117.89-170.84A1.18,1.18,0,0,1,180,144.36Zm93.77-118C246.2,10,216.33,0,180,0S113.8,10,86.23,26.34a.69.69,0,0,0-.3.89.71.71,0,0,0,.87.31c34.86-7.53,87.8,22.57,92.82,25.59a.59.59,0,0,0,.76,0c5-3,58-33.12,92.82-25.59a.71.71,0,0,0,.87-.31A.69.69,0,0,0,273.77,26.34ZM54,51.65a3.15,3.15,0,0,0-.8.61A179.95,179.95,0,0,0,36.81,289.05a.77.77,0,0,0,1,.29.74.74,0,0,0,.2-.93C24.26,246,94.41,143.14,130.64,100a.83.83,0,0,0,.25-.52.79.79,0,0,0-.31-.6C75.67,44.29,57,50.09,54,51.65ZM229.42,98.9a.79.79,0,0,0-.31.6.83.83,0,0,0,.25.52C265.59,143.14,335.74,246,322,288.41a.74.74,0,0,0,.2.93.77.77,0,0,0,1-.29A179.95,179.95,0,0,0,306.8,52.26a3.15,3.15,0,0,0-.8-.61C303,50.09,284.33,44.29,229.42,98.9Zm397,192H589.58l-63.4-87.26-63.39,87.26H426l81.82-112.61L432.38,74.51h36.83l57,78.42,57-78.42H620L544.6,178.27Zm191.18-61.53c0,19-6.3,34.17-18.74,45.09s-30.49,16.44-53.69,16.44H643.71V194.52H595.5l20.06-27.6h28.15V74.51h97.21c21.79,0,38.74,5.22,50.36,15.53s17.53,24.06,17.53,40.84c0,20.81-9.44,36.59-28,46.91,12,4.65,21.22,11.48,27.38,20.32A53.51,53.51,0,0,1,817.59,229.35ZM676.76,166.92h62c12.49,0,22-2.8,28.2-8.33s9.36-13.92,9.36-25c0-9.56-3.28-17.12-9.74-22.49S750.79,103,738.8,103h-62Zm107.48,61.83c0-11.36-3.43-20-10.19-25.67s-17.11-8.56-30.71-8.56H676.76v67.85h66.58c13.2,0,23.43-2.93,30.41-8.72S784.24,239.51,784.24,228.75Zm255.62-46.06c0,16.73-2.43,32.08-7.22,45.63A103.78,103.78,0,0,1,1011,264.41a95.16,95.16,0,0,1-33.75,23.49c-12.7,5.19-27.12,7.83-42.84,7.83-15.93,0-30.44-2.64-43.15-7.83a92.32,92.32,0,0,1-33.44-23.48,102.24,102.24,0,0,1-21.88-35.94c-4.84-13.56-7.29-29-7.29-45.79s2.45-32.1,7.29-45.71a105.06,105.06,0,0,1,21.88-36.31,92.22,92.22,0,0,1,33.44-23.26c12.71-5.14,27.22-7.75,43.15-7.75,15.72,0,30.14,2.61,42.84,7.75A95.27,95.27,0,0,1,1011,100.66,105.4,105.4,0,0,1,1032.64,137C1037.43,150.59,1039.86,166,1039.86,182.69Zm-177,0c0,25.46,6.6,45.88,19.62,60.7,12.81,15,30.26,22.61,51.88,22.61s39.07-7.61,51.87-22.61h0c12.81-14.62,19.31-35,19.31-60.7s-6.5-46.18-19.31-61c-13-14.8-30.46-22.31-51.88-22.31s-38.87,7.51-51.88,22.31C869.51,136.91,862.9,157.44,862.9,182.69Zm281.34-4.42,75.39-103.76H1182.8l-57,78.42-57-78.42H1032l75.39,103.76L1025.6,290.88h36.83l63.4-87.26,63.39,87.26h36.84Zm357-74v62.69h107.49v27.6H1501.27v66.63h121.51v29.73H1468.22V74.5h154.56v29.73Zm-76,86.41c-10.79-9.89-28.74-17.56-53.32-22.8l-18.79-3.94c-17.84-3.81-30.23-8.48-36.84-13.88-6.55-5-9.87-12.43-9.87-22.17,0-9.54,3.73-17,11.08-22.17s18.23-7.82,32.23-7.82c18,0,31.26,3.29,39.35,9.78s12.67,16.75,13.67,30.53l0,.3h32.73v-.33c-.41-21.2-7.83-38.1-22.08-50.23s-35.76-18.25-64-18.25c-23.39,0-42.22,5.37-55.94,16s-20.73,25-20.73,42.82,5.74,31.94,17.07,42.05,28.28,17.46,50.45,21.89l18.48,3.94c18.25,4,31,8.63,38.06,13.74s10.47,12.36,10.47,21.71c0,11.55-4.29,20.49-12.74,26.56s-20.82,9.18-36.63,9.18c-19.13,0-33.74-4.06-43.44-12s-14.73-20.13-15-36.12V219h-33.05v.32c.21,24.83,8.35,44,24.21,56.9s38.29,19.47,66.71,19.47c26.21,0,47-5.84,61.85-17.34s22.4-27.51,22.4-47.52C1441.54,214.09,1436.05,200.55,1425.22,190.64Zm396.38,73.53-2.12-33.62c-.4-11.92-3.07-21.61-7.93-28.8-4.72-7-12.19-12.06-22.22-15.13,11.06-3.69,19.81-10,26-18.74,6.37-9,9.61-20.23,9.61-33.37,0-18.6-6.72-33.41-20-44s-31.59-16-54.59-16h-94.55V290.88h33.06V202.1h62.4c12.38,0,21.48,2.87,27,8.54s8.71,15.54,9.31,29.33l.91,23c.2,12.53,2.36,21.87,6.42,27.75l.09.14h34l-.28-.48C1825,284,1822.6,275.18,1821.6,264.17ZM1688.89,103h59.67c13.6,0,24.19,2.94,31.47,8.72S1791,126.18,1791,137.54c0,11.77-3.58,21-10.65,27.34s-17,9.62-29.33,9.62h-62.1ZM1854.8,290.88h33.06V74.5H1854.8Zm220.67-186.65V74.5H1920.91V290.88h154.56V261.15H1954V194.52h107.48v-27.6H1954V104.23Zm176.15,86.41c-10.8-9.89-28.74-17.56-53.32-22.8l-18.79-3.94c-17.84-3.81-30.24-8.48-36.84-13.88-6.55-5-9.87-12.43-9.87-22.17,0-9.54,3.72-17,11.07-22.17s18.23-7.82,32.24-7.82c18,0,31.26,3.29,39.35,9.78s12.67,16.75,13.66,30.53l0,.3h32.73v-.33c-.41-21.2-7.84-38.1-22.08-50.23s-35.77-18.25-64-18.25c-23.4,0-42.22,5.37-55.95,16s-20.73,25-20.73,42.82,5.75,31.94,17.08,42.05,28.27,17.46,50.44,21.89l18.48,3.94c18.26,4,31.06,8.63,38.06,13.74s10.48,12.36,10.48,21.71c0,11.55-4.29,20.49-12.75,26.56s-20.81,9.18-36.63,9.18c-19.12,0-33.73-4.06-43.43-12s-14.73-20.13-15-36.12V219h-33.05v.32c.2,24.83,8.35,44,24.21,56.9s38.28,19.47,66.71,19.47c26.21,0,47-5.84,61.85-17.34s22.4-27.51,22.4-47.52C2267.94,214.09,2262.45,200.55,2251.62,190.64ZM2603.54,47.46H2587V317.92h16.52ZM2452.21,178.27,2527.6,74.51h-36.83l-57,78.42-57-78.42H2340l75.4,103.76-81.82,112.61h36.83l63.4-87.26,63.4,87.26H2534Zm363.24,12.37c-10.8-9.89-28.74-17.56-53.33-22.8l-18.78-3.94c-17.85-3.81-30.24-8.48-36.84-13.88-6.55-5-9.88-12.42-9.88-22.17,0-9.54,3.73-17,11.08-22.17s18.23-7.82,32.24-7.82c18,0,31.26,3.29,39.34,9.78S2792,124.39,2793,138.17l0,.3h32.74v-.33c-.4-21.2-7.83-38.1-22.08-50.23s-35.76-18.25-64-18.25c-23.4,0-42.22,5.37-55.95,16s-20.73,25-20.73,42.82,5.75,31.94,17.08,42.05,28.27,17.46,50.44,21.89l18.48,3.94c18.25,4,31.06,8.63,38.06,13.74s10.47,12.36,10.47,21.71c0,11.55-4.28,20.49-12.74,26.56s-20.81,9.18-36.63,9.18c-19.12,0-33.74-4.06-43.43-12s-14.73-20.13-15-36.12V219H2656.6v.32c.2,24.83,8.34,44,24.2,56.9s38.29,19.47,66.71,19.47c26.21,0,47-5.84,61.86-17.34s22.39-27.51,22.39-47.52C2831.76,214.09,2826.27,200.55,2815.45,190.64Z"/></g></g></svg>