<svg xmlns="http://www.w3.org/2000/svg" viewBox="0 0 296 58.87"><defs><style>.cls-1{fill:#fff;}</style></defs><g id="Layer_2" data-name="Layer 2"><g id="LOGO"><path class="cls-1" d="M189.36,47.55,178.07,32.21l-11.3,15.34h-4.65L175.71,29,163.3,12.17H168L178.07,25.9l10.1-13.73h4.65L180.42,29,194,47.55Zm-92.71,0L85.35,32.21,74.06,47.55H69.41L83,29,70.59,12.17h4.65L85.35,25.9,95.46,12.17h4.65L87.71,29,101.3,47.55Zm33.56-10.33c0,6.37-4.83,10.33-12.62,10.33H103.23V31H95.88c.53-.8,1.94-2.74,2.56-3.55h4.79V12.17h14.36c10.67,0,11.5,7.36,11.5,9.63a8,8,0,0,1-4.25,7.08,9.79,9.79,0,0,1,2.32,1.47A8.73,8.73,0,0,1,130.21,37.22Zm-23-9.8h10.39c4.79,0,7.53-2.22,7.53-5.93,0-4.93-4.71-5.63-7.53-5.63H107.2Zm19,9.72c0-5.08-4.71-6.16-8.66-6.16H107.2V43.86h10.39C120.83,43.86,126.25,43,126.25,37.14Zm39.5-7.3c0,10.89-6.92,18.49-16.85,18.49S132,40.73,132,29.84,139,11.35,148.9,11.35,165.75,19,165.75,29.84Zm-4,0c0-8.69-5.28-14.75-12.84-14.75S136,21.15,136,29.84s5.3,14.75,12.87,14.75S161.74,38.52,161.74,29.84Zm100.9-17.67V41.24L241.25,12.18h-3.51V47.53h3.94V19.13l20.95,28.42h3.94V12.17ZM234.15,29.84c0,10.89-6.93,18.49-16.85,18.49s-16.88-7.6-16.88-18.49,6.94-18.49,16.88-18.49S234.15,19,234.15,29.84Zm-4,0c0-8.69-5.28-14.75-12.83-14.75s-12.88,6.06-12.88,14.75,5.31,14.75,12.88,14.75S230.13,38.52,230.13,29.84ZM275,44.09V31h19.47V27.54H275V15.63h20.79V12.17H271V47.55h25V44.09ZM8.78,8.46s0,0,0,0h0A29.42,29.42,0,0,0,6,47.27a.14.14,0,0,0,.16,0c.05,0,.05-.09,0-.15C4,40.22,15.44,23.41,21.36,16.35a.12.12,0,0,0,0-.08.14.14,0,0,0,0-.1C11.38,6.25,8.72,8.52,8.76,8.49m41.35,0S47.5,6.24,37.53,16.16a.11.11,0,0,0-.05.1s0,0,0,.08c5.92,7.05,17.38,23.88,15.14,30.82,0,.06,0,.12,0,.15a.14.14,0,0,0,.16,0A29.42,29.42,0,0,0,50.11,8.49h0l0,0M29.43,0A29,29,0,0,0,14.06,4.34a.11.11,0,0,0-.05.14c0,.06.08.07.14,0,5-1.29,13.05,2.91,15.22,4.16l.06,0,.07,0c.82-.5,9.47-5.42,15.17-4.19a.11.11,0,0,0,.15,0,.11.11,0,0,0,0-.14A29.06,29.06,0,0,0,29.43,0m0,23.61a.15.15,0,0,0-.09,0c-8.81,6.7-23.88,23.26-19.28,27.94h0a29.42,29.42,0,0,0,38.75,0h0c4.6-4.68-10.48-21.24-19.28-27.94a.15.15,0,0,0-.1,0"/></g></g></svg>