<svg xmlns="http://www.w3.org/2000/svg" viewBox="0 0 322.86 68.03"><defs><style>.cls-1{fill:#fff;}</style></defs><g id="Layer_2" data-name="Layer 2"><g id="Layer_1-2" data-name="Layer 1"><path class="cls-1" d="M10.59,20.41A6.4,6.4,0,1,0,17,14a6.4,6.4,0,0,0-6.4,6.4M50.59,0H40.06a.44.44,0,0,0-.44.44V67.53a.5.5,0,0,0,.5.5H50.59A17.44,17.44,0,0,0,68,50.59V17.44A17.44,17.44,0,0,0,50.59,0m2.49,44.3A6.88,6.88,0,1,1,60,37.42a6.88,6.88,0,0,1-6.88,6.88M32.31,0H17.44A17.44,17.44,0,0,0,0,17.44V50.59A17.44,17.44,0,0,0,17.44,68H32.31a.5.5,0,0,0,.5-.5V.5a.5.5,0,0,0-.5-.5m-5,62.55H17.44a12,12,0,0,1-12-12V17.44a12,12,0,0,1,12-12h9.89ZM139.42,7.8l9.48,12.76h3.77V1.47H148.8V14L139.4,1.47h-3.85V20.56h3.87ZM100.33,44.47c-5.2-.85-8.56-1.82-8.56-4.24,0-2.8,3.74-3.88,8.76-3.88a31,31,0,0,1,11,2.48l2.56-6.23a40.35,40.35,0,0,0-14-2.78c-7.79,0-16.06,3.8-16.06,10.83,0,5.71,4,8.62,14.35,10.4,7.28,1.25,11.29,1.94,11.18,5.07-.07,1.72-1.4,4.61-9.6,4.61a25.5,25.5,0,0,1-12.87-3.36l-3.41,6.16a35.4,35.4,0,0,0,15.76,3.81c11.46,0,17.52-4,17.52-11.48,0-4.35-1.47-8.89-16.71-11.39M89.25,7.8l9.48,12.76h3.77V1.47H98.63V14L89.24,1.47H85.38V20.56h3.87Zm68.27,48.66-7.63-26.13H143.5l-7.59,26-6.93-26h-7.84l10.19,36H140l6.72-23.73,6.67,23.73h8.69l10.25-36h-7.84Zm-36.37-55H116.9V20.56h4.25Zm60.12,64.88h8v-36h-8ZM300.59.83A10.19,10.19,0,1,0,310.76,11,10.19,10.19,0,0,0,300.59.83m0,16.13A5.94,5.94,0,1,1,306.52,11,5.94,5.94,0,0,1,300.59,17m1.3,27.56H285.07V30.33h-7.45v36h7.45V52h16.82V66.35h7.46v-36h-7.46Zm19.6,16.89L320.24,65,319,61.41h-1.37v4.94h.88V62.56l1.29,3.75,0,0h.85v0L322,62.56v3.79h.89V61.41ZM268.26,1.47h-7.9V20.56h7.9A9.69,9.69,0,0,0,278.07,11a9.69,9.69,0,0,0-9.81-9.55m.19,15.08h-4.17V5.48h4.17a5.54,5.54,0,0,1,0,11.07M312.5,62.36H314v4h1v-4h1.48v-1h-4Zm-58.87-25.2a11.55,11.55,0,0,1,9.89,5.59l5.86-5.09a19.22,19.22,0,1,0,0,21.44L263.52,54a11.55,11.55,0,0,1-9.89,5.59,11.22,11.22,0,1,1,0-22.43M211.27,17h-11V12.55h10.15V9.1H200.29V5h11V1.47H196.42V20.56h14.85ZM198.07,38h11.51V66.35h7.75V38h11.26V30.33H198.07ZM182.44,1.47H166.27V5.52h6.1v15h4.11v-15h6Zm61.77,19.09V1.47h-3.87V14l-9.4-12.54h-3.85V20.56H231V7.8l9.48,12.76Z"/></g></g></svg>