<svg xmlns="http://www.w3.org/2000/svg" viewBox="0 0 716.98 85.04"><defs><style>.cls-1{fill:#fff;}</style></defs><g id="Layer_2" data-name="Layer 2"><g id="Logo"><path id="PS5_PS4_Neg" data-name="PS5|PS4_Neg" class="cls-1" d="M621.36,22.45H591.64c-4.81,0-7.09,3.46-7.09,8.27v23.6c0,7.76-4.74,13.71-14.41,13.71h-35a.37.37,0,0,1-.36-.36V62.93a.36.36,0,0,1,.36-.36h31.35c4.81,0,7.08-3.46,7.08-8.26V30.73C573.6,23,578.34,17,588,17h33.35a.36.36,0,0,1,.36.36V22.1A.36.36,0,0,1,621.36,22.45ZM522.84,17H462.51a.36.36,0,0,0-.36.36V22.1a.36.36,0,0,0,.36.36h56.71c4.8,0,7.09,3.46,7.09,8.27S524,39,519.22,39H474.36c-7,0-12.21,5.85-12.21,13.61V67.67a.36.36,0,0,0,.36.36h10.23a.36.36,0,0,0,.36-.36V52.6c0-4.8,2.77-8.16,6.74-8.16h43c9.68,0,14.41-5.94,14.41-13.7S532.52,17,522.84,17ZM700.9,57.48v4.73a.37.37,0,0,1-.37.36H690.3a.37.37,0,0,0-.36.37v4.72a.37.37,0,0,1-.36.37H679.31a.37.37,0,0,1-.36-.37V62.84a.35.35,0,0,0-.32-.27H621.52c-2.66,0-4-.74-4.49-1.81-.58-1.24.23-2.92,2.64-4.4L681.16,18.6c5.13-3.17,8.77-1.44,8.77,3.83V56.76a.37.37,0,0,0,.37.36h10.23A.37.37,0,0,1,700.9,57.48ZM679,27.43c0-.65-.56-.68-.89-.48L630.44,56.28c-.28.2-.4.36-.35.58s.26.25.65.25h47.87a.37.37,0,0,0,.36-.37ZM708.27,68h.7V62.94h1.66v-.58h-4.06v.58h1.7Zm4.35-5.67h-1.17V68h.65V62.88h0L713.75,68h.86l1.69-5.15h0V68H717V62.36H715.8l-1.6,5h0ZM421.21,0h-1.4V85h1.4Zm-380,0V79.35l18,5.69V18.51c0-3.14,1.4-5.22,3.64-4.5,2.93.81,3.5,3.7,3.5,6.8V47.38c11.18,5.41,20,0,20-14.28,0-14.6-5.16-21.1-20.35-26.33A219.24,219.24,0,0,0,41.18,0M62.57,83.83l39.2-14.08s5.28-2,7.45-4.66,1.2-6.66-7.28-9.35a57.33,57.33,0,0,0-24.89-3,65.31,65.31,0,0,0-13.38,2.82l-1.1.36V66.78L81.77,60c3.3-1.19,8.09-1.44,10.77-.56s2.15,2.51-1.12,3.72L62.57,73.44ZM35.92,74.57l1.79-.29V65l-8.89,3.21c-3.28,1.21-8,1.45-10.74.56S15.93,66.2,19.21,65l18.5-6.63V48L12,57.13s-6.23,2-9.89,4.73c-4,3-2.51,8.07,6.18,10.49A57.71,57.71,0,0,0,35.92,74.57Zm62.94,6.22a4.25,4.25,0,1,0,4.27-4.25A4.13,4.13,0,0,0,98.86,80.79Zm.68,0a3.58,3.58,0,1,1,3.59,3.62A3.48,3.48,0,0,1,99.54,80.79Zm1.91,2.45h.88V81.15h.58c.74,0,.9.18,1,.75.1.35.26,1,.39,1.34h.9c-.14-.47-.32-1-.48-1.54s-.39-.81-.71-.89v0a1.16,1.16,0,0,0,.91-1.2c0-1-.67-1.27-1.57-1.27h-1.94Zm.88-4.3h.84c.48,0,.94.11.94.77s-.38.81-1,.81h-.78ZM384.67,68h.69V62.94H387v-.58H383v.58h1.71ZM389,62.36h-1.16V68h.65V62.89h0L390.14,68H391l1.68-5.14h0V68h.67V62.36h-1.18l-1.6,5h0ZM242.15,68a13.71,13.71,0,0,0,13.71-13.71V30.72a8.27,8.27,0,0,1,8.27-8.27h26.61a.36.36,0,0,0,.36-.36V17.37a.36.36,0,0,0-.36-.36H258.68A13.71,13.71,0,0,0,245,30.72v23.6a8.27,8.27,0,0,1-8.26,8.27H210.46a.37.37,0,0,0-.37.36v4.72a.37.37,0,0,0,.37.36Zm68.23-23.59h46.87a9.08,9.08,0,1,1,.07,18.15H302.48a.36.36,0,0,0-.36.36v4.72a.36.36,0,0,0,.36.36h60.29a14.52,14.52,0,1,0,0-29H316.94A3.92,3.92,0,0,1,313,35.07V22.82a.38.38,0,0,1,.37-.37h61.56a.36.36,0,0,0,.36-.36V17.37a.36.36,0,0,0-.36-.36H302.48a.36.36,0,0,0-.36.36v18.8A8.26,8.26,0,0,0,310.38,44.44ZM152.26,39A13.71,13.71,0,0,0,138.55,52.7v15a.36.36,0,0,0,.36.36h10.17a.36.36,0,0,0,.36-.36v-15a8.27,8.27,0,0,1,8.27-8.27H200A13.72,13.72,0,0,0,200,17h-61a.37.37,0,0,0-.37.36v4.72a.37.37,0,0,0,.37.36H194.5a8.27,8.27,0,0,1,0,16.54Z"/></g></g></svg>